<?xml version="1.0" standalone="no"?>
<!DOCTYPE svg PUBLIC "-//W3C//DTD SVG 20010904//EN"
 "http://www.w3.org/TR/2001/REC-SVG-20010904/DTD/svg10.dtd">
<svg version="1.0" xmlns="http://www.w3.org/2000/svg"
 width="2500.000000pt" height="2500.000000pt" viewBox="0 0 2500.000000 2500.000000"
 preserveAspectRatio="xMidYMid meet">
<metadata>
Created by potrace 1.11, written by Peter Selinger 2001-2013
</metadata>
<g transform="translate(0.000000,2500.000000) scale(0.100000,-0.100000)"
fill="#000000" stroke="none">
<path d="M12322 24029 c-118 -30 -246 -102 -327 -184 -82 -82 -101 -107 -143
-195 -102 -216 -90 -500 31 -687 60 -93 155 -183 247 -235 174 -97 414 -109
610 -30 166 67 280 174 358 334 73 151 95 262 77 393 -34 247 -223 480 -466
575 -97 37 -116 41 -224 45 -64 2 -111 -2 -163 -16z"/>
<path d="M18315 23386 c-212 -68 -321 -164 -382 -337 -35 -100 -37 -260 -5
-364 53 -175 178 -306 332 -349 216 -61 369 -37 520 82 126 99 260 340 245
442 -18 122 -126 316 -224 403 -54 48 -152 106 -205 123 -82 26 -200 26 -281
0z"/>
<path d="M6460 23379 c-70 -7 -181 -43 -239 -77 -170 -97 -272 -303 -258 -521
8 -131 53 -246 130 -331 90 -101 281 -183 412 -179 248 9 469 175 530 401 24
90 18 268 -13 346 -88 227 -337 387 -562 361z"/>
<path d="M16847 20974 c-1 -1 -27 -4 -58 -7 -300 -32 -529 -187 -655 -442
-109 -223 -128 -428 -57 -635 123 -359 480 -622 848 -623 147 0 210 18 351
104 226 136 386 358 448 621 21 89 15 282 -13 365 -27 83 -101 232 -144 291
-105 142 -279 254 -464 298 -54 13 -248 34 -256 28z"/>
<path d="M7988 20965 c-1 -1 -24 -6 -50 -9 -121 -16 -275 -87 -398 -185 -134
-106 -236 -272 -281 -457 -29 -117 -31 -296 -4 -404 10 -41 21 -79 25 -85 3
-5 15 -32 25 -60 40 -109 123 -212 255 -319 115 -93 227 -143 375 -171 35 -6
190 -7 220 -1 11 2 40 7 65 11 159 25 364 136 476 256 22 23 46 49 55 58 74
76 149 250 166 381 9 74 10 236 1 285 -52 297 -302 565 -618 664 -36 11 -83
23 -105 27 -45 7 -201 14 -207 9z"/>
<path d="M12475 20303 c-383 -39 -732 -269 -893 -589 -65 -130 -93 -256 -93
-432 -1 -121 2 -148 26 -245 65 -257 292 -529 570 -682 28 -15 55 -30 60 -33
13 -9 13 -9 156 -18 311 -20 444 -2 612 82 112 57 177 104 263 188 168 168
273 383 300 616 7 52 3 197 -5 255 -18 126 -100 319 -187 441 -95 135 -271
258 -477 334 -62 23 -218 68 -260 76 -17 2 -33 6 -36 7 -3 2 -19 1 -36 0z"/>
<path d="M21731 18630 c-51 -11 -154 -51 -159 -62 -2 -5 -8 -8 -14 -8 -16 0
-139 -90 -183 -135 -124 -124 -187 -284 -187 -475 -1 -106 0 -115 22 -205 16
-62 71 -175 116 -236 28 -39 75 -85 141 -139 28 -23 193 -100 246 -115 101
-29 243 -24 355 12 207 66 362 197 447 378 43 90 57 172 57 315 0 122 -20 210
-65 295 -85 158 -251 293 -432 351 -89 29 -263 41 -344 24z"/>
<path d="M3058 18605 c-2 -2 -25 -5 -53 -8 -75 -9 -121 -24 -225 -78 -203
-103 -317 -256 -363 -487 -18 -88 -15 -242 7 -327 66 -252 290 -456 541 -494
57 -9 200 -7 255 3 178 33 356 144 450 281 46 68 72 126 101 229 67 242 2 473
-185 659 -107 106 -243 181 -376 206 -59 11 -147 20 -152 16z"/>
<path d="M14350 17619 c-297 -28 -564 -117 -794 -266 -272 -176 -514 -470
-642 -778 -9 -22 -20 -49 -24 -60 -38 -92 -84 -276 -98 -390 -9 -78 -9 -322 0
-405 24 -205 132 -505 250 -693 395 -630 1242 -936 1952 -706 100 33 275 111
311 139 6 4 32 20 59 35 177 97 386 301 517 505 117 181 215 429 245 616 3 21
8 42 10 46 25 40 23 548 -2 589 -2 3 -6 21 -9 40 -50 293 -246 640 -487 864
-121 113 -271 217 -412 287 -60 29 -225 96 -256 104 -8 2 -40 10 -70 18 -174
47 -396 69 -550 55z"/>
<path d="M10397 17603 c-1 -1 -33 -4 -72 -7 -376 -33 -770 -222 -1025 -492
-255 -271 -429 -645 -468 -1009 -9 -81 -9 -314 0 -395 37 -331 222 -713 461
-954 216 -216 424 -339 757 -444 167 -53 428 -76 644 -57 411 36 853 275 1118
604 205 254 340 578 377 901 9 80 7 358 -4 425 -28 179 -84 345 -174 520 -75
144 -75 144 -152 250 -184 252 -464 454 -786 564 -48 16 -99 32 -113 35 -14 3
-65 14 -115 24 -104 23 -220 35 -353 36 -52 1 -94 0 -95 -1z"/>
<path d="M18327 16904 c-1 -1 -33 -4 -72 -8 -212 -19 -452 -137 -603 -298 -31
-33 -61 -67 -66 -76 -5 -9 -12 -19 -15 -22 -50 -43 -133 -231 -167 -380 -18
-78 -25 -294 -12 -380 16 -115 68 -265 122 -355 78 -131 164 -219 301 -309
189 -125 315 -167 505 -169 156 -2 229 9 354 53 351 121 599 395 682 753 3 12
7 82 8 155 4 197 -25 338 -101 480 -31 58 -100 159 -128 188 -6 7 -23 25 -36
40 -51 59 -198 169 -286 213 -136 68 -283 106 -441 114 -24 2 -44 2 -45 1z"/>
<path d="M6608 16895 c-1 -1 -25 -5 -53 -9 -237 -28 -503 -161 -675 -337 -118
-121 -224 -324 -244 -471 -3 -23 -8 -54 -11 -68 -12 -55 -12 -210 1 -285 17
-105 38 -173 82 -265 127 -268 356 -464 637 -545 91 -27 228 -36 390 -25 58 3
178 31 220 50 11 5 42 18 68 29 132 56 314 215 408 356 93 140 157 296 185
450 19 109 18 162 -7 269 -106 456 -498 802 -966 851 -17 2 -33 2 -35 0z"/>
<path d="M16214 14174 c-161 -23 -331 -70 -457 -128 -32 -14 -60 -26 -62 -26
-12 0 -189 -115 -251 -163 -256 -197 -467 -498 -575 -816 -35 -102 -75 -270
-86 -361 -15 -124 -8 -408 12 -480 2 -8 7 -31 10 -50 31 -193 175 -497 330
-695 236 -303 586 -512 995 -596 123 -25 207 -33 355 -33 144 0 219 7 345 33
504 105 944 456 1159 926 61 132 122 327 136 435 3 25 8 56 11 70 15 77 20
310 8 412 -20 183 -74 368 -155 533 -33 66 -29 59 -117 198 -203 320 -473 530
-852 662 -237 83 -556 114 -806 79z"/>
<path d="M8439 14176 c-2 -2 -40 -6 -84 -9 -255 -18 -563 -132 -787 -291 -352
-250 -621 -675 -697 -1101 -6 -33 -14 -71 -17 -85 -3 -14 -7 -104 -9 -200 -3
-166 6 -251 39 -399 27 -121 146 -394 229 -526 230 -368 612 -621 1092 -721
116 -25 152 -28 335 -28 204 -1 247 2 370 28 153 32 265 72 403 143 241 124
485 347 643 588 38 57 140 247 136 253 -1 1 4 17 12 36 37 88 87 285 101 396
4 30 9 64 11 75 6 29 6 288 0 316 -3 13 -8 51 -11 84 -20 187 -93 397 -212
603 -198 343 -506 598 -888 736 -77 28 -244 71 -315 81 -25 4 -58 9 -75 11
-36 6 -271 14 -276 10z"/>
<path d="M21181 13369 c-419 -96 -727 -477 -740 -917 -2 -69 0 -76 58 -198
149 -311 304 -464 553 -549 73 -25 100 -29 220 -31 119 -3 148 0 230 22 216
57 403 184 515 349 53 79 66 105 98 200 24 70 29 99 32 230 7 207 -20 322
-108 472 -72 123 -254 279 -412 353 -172 82 -301 102 -446 69z"/>
<path d="M3525 13314 c-135 -28 -259 -85 -365 -167 -125 -97 -261 -316 -281
-452 -1 -5 -5 -20 -10 -32 -18 -48 -28 -227 -16 -308 28 -201 100 -344 241
-478 182 -174 325 -236 556 -242 69 -2 143 0 165 5 22 5 52 11 66 13 14 3 46
12 70 20 252 86 431 251 519 480 18 45 34 90 35 99 2 10 6 22 10 27 13 22 26
123 26 205 -1 214 -93 420 -262 588 -211 208 -490 298 -754 242z"/>
<path d="M24332 13064 c-156 -32 -305 -144 -372 -278 -91 -185 -71 -443 48
-606 64 -87 153 -154 244 -181 56 -17 279 -20 338 -4 182 48 336 204 389 394
29 104 23 215 -18 316 -42 104 -64 139 -125 203 -123 128 -328 192 -504 156z"/>
<path d="M464 13014 c-116 -20 -190 -56 -278 -134 -36 -32 -107 -132 -134
-190 -55 -116 -64 -278 -22 -400 35 -105 138 -237 228 -294 104 -65 280 -91
414 -60 140 33 270 120 343 230 56 85 77 166 79 314 1 111 -2 132 -23 185 -50
124 -144 228 -261 289 -58 30 -83 39 -140 53 -64 15 -145 18 -206 7z"/>
<path d="M14408 10765 c-2 -1 -35 -5 -75 -9 -99 -8 -248 -41 -372 -83 -433
-144 -801 -468 -996 -878 -61 -127 -83 -192 -125 -364 -37 -156 -44 -214 -44
-371 1 -133 6 -189 29 -303 9 -40 18 -84 21 -99 17 -85 112 -310 183 -435 106
-185 295 -396 469 -523 218 -159 476 -267 709 -296 20 -3 39 -6 43 -9 11 -7
171 -19 260 -19 231 0 438 47 658 150 507 237 873 690 983 1214 17 83 23 144
24 290 1 102 -2 214 -6 250 -5 36 -11 79 -13 95 -23 176 -137 452 -259 627
-291 418 -752 698 -1242 754 -57 6 -242 13 -247 9z"/>
<path d="M10428 10755 c-2 -2 -32 -6 -68 -9 -61 -5 -79 -8 -140 -21 -14 -3
-34 -7 -45 -9 -11 -2 -45 -11 -76 -20 -31 -9 -65 -18 -75 -20 -40 -8 -161 -58
-257 -106 -334 -168 -607 -452 -777 -806 -21 -45 -48 -110 -60 -145 -11 -35
-24 -71 -27 -79 -7 -17 -6 -12 -27 -101 -8 -37 -18 -80 -20 -95 -29 -156 -25
-480 6 -599 6 -22 12 -53 15 -70 3 -16 20 -75 38 -130 168 -512 587 -933 1085
-1090 286 -90 597 -112 845 -59 39 9 80 17 92 20 40 8 197 66 271 100 224 103
447 275 613 471 209 247 349 555 385 843 10 79 11 363 1 443 -27 230 -125 497
-249 681 -167 246 -398 460 -626 582 -36 18 -70 38 -76 42 -17 13 -204 88
-266 107 -30 9 -84 23 -120 31 -64 14 -74 16 -158 29 -43 7 -279 15 -284 10z"/>
<path d="M18266 10108 c-144 -19 -322 -85 -442 -164 -210 -138 -365 -389 -412
-665 -13 -82 -7 -329 11 -404 65 -276 194 -457 432 -605 110 -69 227 -120 313
-136 12 -2 34 -6 50 -9 15 -3 77 -6 137 -6 173 0 328 39 485 123 150 79 246
160 351 293 50 64 129 209 129 237 0 9 4 19 9 22 10 6 30 80 39 146 9 60 8
293 0 350 -38 247 -198 488 -431 649 -191 131 -453 197 -671 169z"/>
<path d="M6430 10071 c-152 -31 -244 -70 -360 -153 -359 -255 -524 -748 -389
-1158 34 -104 88 -196 175 -299 126 -151 199 -205 405 -302 35 -16 110 -34
214 -50 67 -11 249 -7 325 6 196 35 398 136 530 265 133 131 200 252 275 500
20 67 29 272 14 350 -40 218 -138 401 -298 560 -153 152 -308 239 -516 286
-66 16 -289 12 -375 -5z"/>
<path d="M21805 7789 c-397 -48 -700 -506 -580 -875 31 -94 114 -248 161 -297
171 -178 418 -254 665 -205 145 29 225 73 340 188 106 105 145 168 174 285 19
78 26 244 15 345 -5 36 -11 92 -15 125 -3 32 -10 66 -15 75 -5 8 -48 53 -97
100 -199 193 -291 241 -485 256 -51 3 -95 7 -98 8 -3 1 -32 -1 -65 -5z"/>
<path d="M2992 7749 c-109 -21 -279 -111 -363 -192 -206 -198 -264 -546 -137
-817 37 -77 102 -165 153 -206 20 -16 49 -39 65 -51 15 -13 31 -23 34 -23 4 0
23 -11 44 -23 119 -76 302 -99 465 -61 115 27 146 39 231 89 166 97 289 269
323 455 30 163 15 283 -52 425 -86 181 -268 332 -470 390 -68 19 -228 27 -293
14z"/>
<path d="M12277 6696 c-79 -17 -123 -29 -162 -46 -11 -4 -36 -14 -55 -21 -57
-20 -169 -77 -208 -106 -67 -48 -179 -169 -225 -240 -251 -392 -219 -928 75
-1247 76 -83 239 -199 351 -251 74 -34 158 -59 237 -70 47 -6 208 -7 250 0
448 65 815 397 879 795 14 85 14 320 0 396 -66 365 -366 672 -757 775 -95 26
-300 33 -385 15z"/>
<path d="M16725 5711 c-38 -11 -82 -24 -96 -28 -14 -4 -70 -33 -124 -63 -105
-59 -217 -158 -274 -243 -230 -341 -196 -812 79 -1087 177 -176 361 -258 580
-258 160 0 269 26 414 99 223 113 388 313 442 534 21 91 27 290 10 375 -63
309 -290 550 -616 655 -118 38 -311 45 -415 16z"/>
<path d="M7924 5690 c-84 -23 -244 -95 -308 -140 -174 -119 -300 -340 -351
-615 -27 -149 -26 -208 6 -283 102 -244 271 -450 449 -550 114 -63 223 -86
415 -86 258 0 502 128 665 349 42 57 120 212 120 239 0 9 4 25 10 35 23 44 31
318 11 403 -70 300 -305 542 -622 639 -104 32 -294 36 -395 9z"/>
<path d="M18355 2717 c-214 -87 -369 -270 -405 -480 -28 -161 31 -338 155
-462 107 -108 231 -155 390 -149 109 4 131 8 214 41 123 49 223 136 280 242
51 96 74 279 49 381 -31 125 -147 266 -287 350 -75 45 -246 109 -291 109 -14
1 -61 -14 -105 -32z"/>
<path d="M6447 2688 c-171 -30 -328 -171 -432 -391 -26 -53 -47 -105 -47 -114
-3 -61 44 -207 94 -290 77 -129 242 -261 361 -290 158 -37 266 -19 411 65 124
73 211 184 246 316 18 64 17 216 0 286 -52 213 -206 371 -395 405 -109 19
-176 23 -238 13z"/>
<path d="M12289 2330 c-150 -37 -286 -119 -377 -228 -58 -70 -94 -142 -128
-256 -61 -200 -48 -335 50 -522 83 -161 272 -315 423 -346 5 -1 26 -7 49 -14
41 -12 272 -13 291 -1 5 3 20 8 34 10 85 16 222 99 322 196 118 113 120 118
171 313 l46 176 -20 69 c-76 258 -138 374 -249 467 -59 49 -216 124 -297 141
-93 20 -222 18 -315 -5z"/>
</g>
</svg>
